
<svg width="512" height="512" viewBox="0 0 512 512" fill="none" xmlns="http://www.w3.org/2000/svg">
<path fill-rule="evenodd" clip-rule="evenodd" d="M28.1722 71.8406C28.1722 47.7232 47.7232 28.1722 71.8406 28.1722H441.384C465.502 28.1722 485.053 47.7232 485.053 71.8406V441.384C485.053 465.502 465.502 485.053 441.384 485.053H71.8406C47.7232 485.053 28.1722 465.502 28.1722 441.384V71.8406ZM71.8405 115.509C71.8405 91.3916 91.3915 71.8406 115.509 71.8406H397.716C421.833 71.8406 441.384 91.3916 441.384 115.509V397.716C441.384 421.833 421.833 441.384 397.716 441.384H115.509C91.3914 441.384 71.8405 421.833 71.8405 397.716V115.509ZM363.444 361.057C371.397 350.538 375.374 337.582 375.374 322.189C375.374 304.487 370.756 289.607 361.52 277.549C352.541 265.491 340.226 257.153 324.576 252.535C337.404 246.891 347.153 238.168 353.823 226.367C360.494 214.566 363.829 202.123 363.829 189.039C363.829 177.494 361.263 166.462 356.132 155.944C351.258 145.168 344.074 136.446 334.582 129.775C325.346 122.848 314.314 119.385 301.487 119.385H155.252V392.612H287.248C303.154 392.612 317.778 389.919 331.118 384.531C344.716 379.144 355.491 371.319 363.444 361.057ZM317.649 293.712C320.472 299.099 321.883 305.257 321.883 312.184C321.883 318.597 320.343 324.498 317.265 329.886C314.186 335.273 309.953 339.635 304.565 342.97C299.434 346.048 293.662 347.588 287.248 347.588H208.358V275.625H289.942C296.099 275.625 301.487 277.292 306.105 280.628C310.979 283.706 314.827 288.068 317.649 293.712ZM208.358 233.679V164.795H281.476C287.12 164.795 292.123 166.206 296.484 169.028C301.102 171.85 304.694 175.826 307.259 180.957C310.081 186.088 311.492 192.117 311.492 199.044C311.492 206.228 309.953 212.385 306.874 217.516C304.052 222.647 300.204 226.623 295.329 229.446C290.455 232.268 285.067 233.679 279.167 233.679H208.358Z" fill="url(#paint0_linear_1_162)"/>
<mask id="mask0_1_162" style="mask-type:alpha" maskUnits="userSpaceOnUse" x="28" y="28" width="457" height="457">
<path fill-rule="evenodd" clip-rule="evenodd" d="M28 71.6684C28 47.551 47.551 28 71.6684 28H441.332C465.449 28 485 47.551 485 71.6684V441.332C485 465.449 465.449 485 441.332 485H71.6684C47.551 485 28 465.449 28 441.332V71.6684ZM72 115.668C72 91.551 91.551 72 115.668 72H398.332C422.449 72 442 91.551 442 115.668V398.332C442 422.449 422.449 442 398.332 442H115.668C91.551 442 72 422.449 72 398.332V115.668ZM363.669 361.444C371.622 350.926 375.599 337.97 375.599 322.577C375.599 304.874 370.981 289.994 361.745 277.937C352.766 265.879 340.451 257.541 324.801 252.923C337.629 247.279 347.378 238.556 354.048 226.754C360.719 214.953 364.054 202.51 364.054 189.426C364.054 177.881 361.488 166.85 356.357 156.331C351.483 145.556 344.299 136.833 334.807 130.163C325.571 123.236 314.539 119.772 301.712 119.772H155.477V393H287.473C303.379 393 318.003 390.306 331.343 384.919C344.941 379.531 355.716 371.706 363.669 361.444ZM317.874 294.099C320.697 299.487 322.108 305.644 322.108 312.571C322.108 318.985 320.568 324.886 317.49 330.273C314.411 335.661 310.178 340.022 304.79 343.357C299.659 346.436 293.887 347.975 287.473 347.975H208.583V276.012H290.167C296.324 276.012 301.712 277.68 306.33 281.015C311.204 284.094 315.052 288.455 317.874 294.099ZM208.583 234.066V165.182H281.701C287.345 165.182 292.348 166.593 296.709 169.415C301.327 172.237 304.919 176.214 307.484 181.345C310.306 186.476 311.717 192.505 311.717 199.432C311.717 206.615 310.178 212.772 307.099 217.903C304.277 223.034 300.429 227.011 295.554 229.833C290.68 232.655 285.292 234.066 279.392 234.066H208.583Z" fill="url(#paint1_linear_1_162)"/>
</mask>
<g mask="url(#mask0_1_162)">
<path d="M257.284 133.811L264.61 119.039H249.799L257.284 133.811Z" fill="#41B883"/>
<path d="M257.284 484.42L273.781 451.427L278.47 442.049H236.098L240.787 451.427L257.284 484.42Z" fill="#41B883"/>
<path d="M485.511 27.9663H394.22H309.776L264.61 119.039L257.284 133.811L249.799 119.039L203.651 27.9663H29.0569L155.032 279.916L211.339 392.53H218.292H303.229L365.808 267.373L377.942 243.105L485.511 27.9663Z" fill="#41B883"/>
<path d="M119.039 27.9663L257.31 303.366L394.438 27.9663H309.876L274.324 99.605L272.362 103.558L262.341 123.752L257.31 133.889L252.17 123.752L241.93 103.558L239.926 99.605L203.601 27.9663H119.039Z" fill="#35495E"/>
</g>
<defs>
<linearGradient id="paint0_linear_1_162" x1="178.321" y1="351.333" x2="387.417" y2="200.179" gradientUnits="userSpaceOnUse">
<stop stop-color="#47C9E5"/>
<stop offset="1" stop-color="#00A0E3"/>
</linearGradient>
<linearGradient id="paint1_linear_1_162" x1="178.188" y1="351.245" x2="387.339" y2="200.052" gradientUnits="userSpaceOnUse">
<stop stop-color="#47C9E5"/>
<stop offset="1" stop-color="#00A0E3"/>
</linearGradient>
</defs>
</svg>
